<svg xmlns="http://www.w3.org/2000/svg" version="1.1" xmlns:xlink="http://www.w3.org/1999/xlink" xmlns:svgjs="http://svgjs.dev/svgjs" width="100%" height="100%" viewBox="0 0 1000 600"><rect width="1000" height="600" x="0" y="0" fill="#c2cddc"/><g><circle r="166.66666666666666" cx="320.7639719645182" cy="342.9862076436033" fill="#2b3a4b" transform="matrix(0.8111757414092144,0,0,0.8111757414092147,0,21.77791191395073)"/><path d="M283.99478380605535 297.47007276305317L283.99478380605535 297.47007276305317Q298.5197532878965 297.47007276305317 305.91926604279683 305.05228953659287Q313.2959407953671 312.6345063101326 313.2959407953671 329.4204380226378L313.2959407953671 329.4204380226378L313.2959407953671 387.06355590340394L300.1184134509923 387.06355590340394L300.1184134509923 330.0599020878761Q300.1184134509923 319.3717169974647 295.50513698034456 314.05046245458885Q290.8918605096969 308.70636990938317 281.82517358471114 308.70636990938317L281.82517358471114 308.70636990938317Q269.0587302822752 308.70636990938317 263.28071569280064 316.08304466195347Q257.502701103326 323.4825574168537 257.502701103326 337.84766088238536L257.502701103326 337.84766088238536L257.502701103326 387.06355590340394L244.2566597519614 387.06355590340394L244.2566597519614 330.0599020878761Q244.2566597519614 322.9116073586052 242.20123954226688 318.1841408763078Q240.14581933257236 313.4338363916805 236.10349292017318 311.05868414936685Q232.038328505444 308.70636990938317 225.8720678763605 308.70636990938317L225.8720678763605 308.70636990938317Q217.1022749816639 308.70636990938317 211.80385844111805 312.31477427751355Q206.5054419005722 315.9231786456439 204.15312766058847 323.0257973702549Q201.77797541827482 330.12841609486594 201.77797541827482 340.49686915265823L201.77797541827482 340.49686915265823L201.77797541827482 387.06355590340394L188.44058205759043 387.06355590340394L188.44058205759043 299.06873292614887L199.1972811549917 299.06873292614887L201.20702536002634 311.51544419596564L201.93784143458439 311.51544419596564Q204.58704970485732 306.9250057276479 208.6065381149266 303.7961994084462Q212.60318852266593 300.66739308924457 217.58187303059262 299.06873292614887Q222.56055753851933 297.47007276305317 228.17870611168433 297.47007276305317L228.17870611168433 297.47007276305317Q238.2274271368575 297.47007276305317 245.01031382884938 301.1926671428332Q251.79320052084128 304.93809952494325 254.85349283305308 312.5431543008129L254.85349283305308 312.5431543008129L255.5614709052812 312.5431543008129Q259.90069134796965 304.93809952494325 267.4600701191795 301.1926671428332Q274.9966108880593 297.47007276305317 283.99478380605535 297.47007276305317ZM325.74265206518385 417.98621105814135L325.74265206518385 417.98621105814135Q321.7231636551146 417.98621105814135 318.6857093452327 417.41526099989284Q315.6254170330209 416.84431094164444 313.45580681167667 415.885114843787L313.45580681167667 415.885114843787L313.45580681167667 404.23773365551807Q316.0365010749598 405.0599017393959 319.00544137785187 405.4938237836647Q321.97438168074393 405.9277458279336 325.42292003256466 405.9277458279336L325.42292003256466 405.9277458279336Q329.9220064915627 405.9277458279336 333.6902768760026 404.1692196485282Q337.4585472604425 402.38785546679304 339.71950949110646 398.13998703342435Q341.95763371944054 393.89211860005565 341.95763371944054 386.4240918381657L341.95763371944054 386.4240918381657L341.95763371944054 269.67622392751736L355.6832731197338 269.67622392751736L355.6832731197338 385.3735437309884Q355.6832731197338 396.38146085401905 352.02919274694364 403.5982695902798Q348.37511237415345 410.83791632887045 341.6835776914812 414.4006446923409Q334.9692050064792 417.98621105814135 325.74265206518385 417.98621105814135ZM453.0873530569238 355.82116871604734L453.0873530569238 355.82116871604734Q453.0873530569238 366.2581357808295 447.90312652802766 373.61197253106985Q442.7188999991315 380.9658092813102 433.4009950485164 384.82543167506986Q424.10592810023127 388.66221606649964 411.4993508141049 388.66221606649964L411.4993508141049 388.66221606649964Q404.83065413376266 388.66221606649964 398.89277352797853 388.0227520012614Q392.9548929221944 387.3832879360231 387.9762084142677 386.17287381253635Q382.9975239063409 384.98529769137946 379.2064155195711 383.2039335096443L379.2064155195711 383.2039335096443L379.2064155195711 370.11775817458914Q385.235648134675 372.60710042855254 393.91408902005185 374.7310346452369Q402.5696919030987 376.8778068642511 412.0474628700234 376.8778068642511L412.0474628700234 376.8778068642511Q420.8857697717099 376.8778068642511 426.9835163938035 374.50265462193744Q433.0812630158972 372.12750237962376 436.25574533975873 367.6740919252857Q439.43022766362026 363.22068147094757 439.43022766362026 356.96306883254425L439.43022766362026 356.96306883254425Q439.43022766362026 350.9338362174404 436.7810193933474 346.8686718027113Q434.1318111230745 342.82634539031204 427.9883884963209 339.4919970501409Q421.8449658695672 336.1576487099698 411.2481327884756 332.3893783255299L411.2481327884756 332.3893783255299Q403.7801060265855 329.740170055257 398.0934434464307 326.5656877313955Q392.3839428639459 323.39120540753396 388.52432047018624 319.3717169974647Q384.6646980764265 315.37506658972535 382.7006298760517 310.07665004917953Q380.73656167567697 304.75539550630367 380.73656167567697 297.94967081198183L380.73656167567697 297.94967081198183Q380.73656167567697 288.540413852047 385.5097041626343 281.84887916937487Q390.3056846519214 275.13450648437276 398.7557455139988 271.5717781209023Q407.2286443784062 267.98621175510186 418.2365615014369 267.98621175510186L418.2365615014369 267.98621175510186Q427.62298045904186 267.98621175510186 435.6162812745205 269.76757593683715Q443.6095820899991 271.52610211624244 450.27827877034133 274.4950424191345L450.27827877034133 274.4950424191345L446.00757233464276 286.2109376143932Q439.6814456892496 283.5617293441203 432.5559889623087 281.803203164715Q425.45337023769764 280.0446769853097 417.9168294688177 280.0446769853097L417.9168294688177 280.0446769853097Q410.3574506976079 280.0446769853097 405.1960621710417 282.2371252089838Q400.01183564214557 284.4524114349879 397.27127536255284 288.4718998450572Q394.5535530852901 292.4913882551265 394.5535530852901 298.0181848189717L394.5535530852901 298.0181848189717Q394.5535530852901 304.20728345038515 397.1570853509031 308.29528586744425Q399.76061761651624 312.3832882845033 405.5157942036608 315.5577706083648Q411.2481327884756 318.73225293222634 420.7259037554003 322.1807912840472L420.7259037554003 322.1807912840472Q431.0715188108626 325.9718996708171 438.31116554945334 330.1740920995258Q445.527974285714 334.3991225305645 449.3190826724839 340.45119314799837Q453.0873530569238 346.5261017677622 453.0873530569238 355.82116871604734Z " fill="#ffffcc" transform="matrix(0.8111757414092144,0,0,0.8111757414092147,0,21.77791191395073)"/><path d="M666.3181785814457 297.47007276305317L666.3181785814457 297.47007276305317Q680.843148063287 297.47007276305317 688.2426608181872 305.05228953659287Q695.6193355707575 312.6345063101326 695.6193355707575 329.4204380226378L695.6193355707575 329.4204380226378L695.6193355707575 387.06355590340394L682.4418082263827 387.06355590340394L682.4418082263827 330.0599020878761Q682.4418082263827 319.3717169974647 677.828531755735 314.05046245458885Q673.2152552850873 308.70636990938317 664.1485683601015 308.70636990938317L664.1485683601015 308.70636990938317Q651.3821250576656 308.70636990938317 645.604110468191 316.08304466195347Q639.8260958787165 323.4825574168537 639.8260958787165 337.84766088238536L639.8260958787165 337.84766088238536L639.8260958787165 387.06355590340394L626.5800545273518 387.06355590340394L626.5800545273518 330.0599020878761Q626.5800545273518 322.9116073586052 624.5246343176574 318.1841408763078Q622.4692141079628 313.4338363916805 618.4268876955636 311.05868414936685Q614.3617232808344 308.70636990938317 608.195462651751 308.70636990938317L608.195462651751 308.70636990938317Q599.4256697570544 308.70636990938317 594.1272532165084 312.31477427751355Q588.8288366759626 315.9231786456439 586.4765224359788 323.0257973702549Q584.1013701936653 330.12841609486594 584.1013701936653 340.49686915265823L584.1013701936653 340.49686915265823L584.1013701936653 387.06355590340394L570.7639768329808 387.06355590340394L570.7639768329808 299.06873292614887L581.5206759303821 299.06873292614887L583.5304201354168 311.51544419596564L584.2612362099748 311.51544419596564Q586.9104444802477 306.9250057276479 590.929932890317 303.7961994084462Q594.9265832980564 300.66739308924457 599.905267805983 299.06873292614887Q604.8839523139097 297.47007276305317 610.5021008870748 297.47007276305317L610.5021008870748 297.47007276305317Q620.5508219122479 297.47007276305317 627.3337086042399 301.1926671428332Q634.1165952962317 304.93809952494325 637.1768876084435 312.5431543008129L637.1768876084435 312.5431543008129L637.8848656806716 312.5431543008129Q642.22408612336 304.93809952494325 649.7834648945699 301.1926671428332Q657.3200056634497 297.47007276305317 666.3181785814457 297.47007276305317ZM756.8708578196539 297.47007276305317L756.8708578196539 297.47007276305317Q768.1299929683139 297.47007276305317 776.1461317861225 302.44875727097985Q784.185108606261 307.40460377657666 788.4329770396297 316.35710068991267Q792.6808454729983 325.30959760324885 792.6808454729983 337.27671082413684L792.6808454729983 337.27671082413684L792.6808454729983 345.5440676675748L731.9089212730306 345.5440676675748Q732.1601392986599 361.05107124960335 739.62816606055 369.1585620767317Q747.09619282244 377.26605290386004 760.6619662064238 377.26605290386004L760.6619662064238 377.26605290386004Q768.9978370568516 377.26605290386004 775.4381537138944 375.7359067477542Q781.8556323686072 374.20576059164824 788.7527090722488 371.2368202887562L788.7527090722488 371.2368202887562L788.7527090722488 382.97555348634484Q782.0840123919066 385.9444937892369 775.552343725544 387.31477392903327Q768.9978370568516 388.66221606649964 760.0910161481753 388.66221606649964L760.0910161481753 388.66221606649964Q747.4159248550592 388.66221606649964 737.9838298927943 383.5008275399335Q728.5288969281996 378.31660101103733 723.3218323969735 368.2678799858641Q718.0919298634175 358.2419969630209 718.0919298634175 343.7170274811796L718.0919298634175 343.7170274811796Q718.0919298634175 329.4889520296277 722.8879103527047 319.0976609695054Q727.6610528396619 308.70636990938317 736.3623317273687 303.0882213362181Q745.0864486174054 297.47007276305317 756.8708578196539 297.47007276305317ZM756.7109918033444 308.386637876764L756.7109918033444 308.386637876764Q746.0456447152629 308.386637876764 739.6966800675398 315.37506658972535Q733.3477154198167 322.3406573003568 732.1601392986599 334.8787205794933L732.1601392986599 334.8787205794933L778.7268260494055 334.8787205794933Q778.6354740400858 326.9996097756643 776.2603217977721 321.0160531652203Q773.9080075577884 315.0324965547763 769.0891890661713 311.72098621693505Q764.2703705745541 308.386637876764 756.7109918033444 308.386637876764ZM849.2049012395975 297.47007276305317L849.2049012395975 297.47007276305317Q860.4640363882573 297.47007276305317 868.480175206066 302.44875727097985Q876.5191520262044 307.40460377657666 880.7670204595731 316.35710068991267Q885.0148888929417 325.30959760324885 885.0148888929417 337.27671082413684L885.0148888929417 337.27671082413684L885.0148888929417 345.5440676675748L824.242964692974 345.5440676675748Q824.4941827186034 361.05107124960335 831.9622094804935 369.1585620767317Q839.4302362423836 377.26605290386004 852.9960096263673 377.26605290386004L852.9960096263673 377.26605290386004Q861.331880476795 377.26605290386004 867.7721971338377 375.7359067477542Q874.1896757885507 374.20576059164824 881.0867524921922 371.2368202887562L881.0867524921922 371.2368202887562L881.0867524921922 382.97555348634484Q874.4180558118501 385.9444937892369 867.8863871454874 387.31477392903327Q861.331880476795 388.66221606649964 852.4250595681189 388.66221606649964L852.4250595681189 388.66221606649964Q839.7499682750027 388.66221606649964 830.2950353104079 383.5008275399335Q820.8629403481431 378.31660101103733 815.6558758169169 368.2678799858641Q810.4259732833609 358.2419969630209 810.4259732833609 343.7170274811796L810.4259732833609 343.7170274811796Q810.4259732833609 329.4889520296277 815.2219537726481 319.0976609695054Q819.9950962596054 308.70636990938317 828.6963751473121 303.0882213362181Q837.4204920373489 297.47007276305317 849.2049012395975 297.47007276305317ZM849.0450352232878 308.386637876764L849.0450352232878 308.386637876764Q838.3796881352063 308.386637876764 832.0307234874832 315.37506658972535Q825.6817588397602 322.3406573003568 824.4941827186034 334.8787205794933L824.4941827186034 334.8787205794933L871.0608694693491 334.8787205794933Q870.9695174600292 326.9996097756643 868.5943652177157 321.0160531652203Q866.242050977732 315.0324965547763 861.4232324861148 311.72098621693505Q856.6044139944976 308.386637876764 849.0450352232878 308.386637876764ZM936.0806621026856 377.7456509527888L936.0806621026856 377.7456509527888Q939.3693344381967 377.7456509527888 942.8407107923474 377.1975388968703Q946.2892491441681 376.6265888386218 948.4588593655124 375.82725875707393L948.4588593655124 375.82725875707393L948.4588593655124 386.17287381253635Q946.1293831278587 387.22342191971353 941.9957047061397 387.9542379942715Q937.8620262844206 388.66221606649964 933.9110518813412 388.66221606649964L933.9110518813412 388.66221606649964Q926.9454611707098 388.66221606649964 921.2359605882251 386.2185498171962Q915.5264600057404 383.7748835678927 912.1235976585793 377.9055169690984Q908.7207353114185 372.058988372634 908.7207353114185 361.6905353148417L908.7207353114185 361.6905353148417L908.7207353114185 309.505699990931L896.182672032282 309.505699990931L896.182672032282 302.9968693268984L908.7892493184083 297.7898047956723L914.0876658589542 278.67439684551334L922.1266426790927 278.67439684551334L922.1266426790927 299.06873292614887L947.8879093072638 299.06873292614887L947.8879093072638 309.505699990931L922.1266426790927 309.505699990931L922.1266426790927 361.2794512729028Q922.1266426790927 369.5696461186706 925.9405890681925 373.6576485357297Q929.7545354572924 377.7456509527888 936.0806621026856 377.7456509527888ZM951.3364476590847 417.98621105814135L951.3364476590847 417.98621105814135Q947.3397972513454 417.98621105814135 944.2795049391335 417.41526099989284Q941.2192126269218 416.84431094164444 939.0496024055775 415.885114843787L939.0496024055775 415.885114843787L939.0496024055775 404.23773365551807Q941.6302966688606 405.0599017393959 944.5992369717527 405.4938237836647Q947.5681772746447 405.9277458279336 951.0167156264655 405.9277458279336L951.0167156264655 405.9277458279336Q955.5158020854635 405.9277458279336 959.2840724699035 404.1692196485282Q963.0751808566735 402.38785546679304 965.3133050850074 398.13998703342435Q967.5514293133414 393.89211860005565 967.5514293133414 386.4240918381657L967.5514293133414 386.4240918381657L967.5514293133414 269.67622392751736L981.2999067159647 269.67622392751736L981.2999067159647 385.3735437309884Q981.2999067159647 396.38146085401905 977.6458263431745 403.5982695902798Q973.9917459703843 410.83791632887045 967.2773732853822 414.4006446923409Q960.5858386027099 417.98621105814135 951.3364476590847 417.98621105814135ZM1078.681148650825 355.82116871604734L1078.681148650825 355.82116871604734Q1078.681148650825 366.2581357808295 1073.4969221219285 373.61197253106985Q1068.3355335953624 380.9658092813102 1059.0176286447472 384.82543167506986Q1049.699723694132 388.66221606649964 1037.0931464080059 388.66221606649964L1037.0931464080059 388.66221606649964Q1030.4244497276636 388.66221606649964 1024.4865691218793 388.0227520012614Q1018.5486885160952 387.3832879360231 1013.5700040081684 386.17287381253635Q1008.5913195002419 384.98529769137946 1004.8230491158018 383.2039335096443L1004.8230491158018 383.2039335096443L1004.8230491158018 370.11775817458914Q1010.8294437285758 372.60710042855254 1019.5078846139526 374.7310346452369Q1028.1863254993295 376.8778068642511 1037.6640964662543 376.8778068642511L1037.6640964662543 376.8778068642511Q1046.4795653656106 376.8778068642511 1052.6001499900344 374.50265462193744Q1058.6978966121283 372.12750237962376 1061.8723789359897 367.6740919252857Q1065.024023257521 363.22068147094757 1065.024023257521 356.96306883254425L1065.024023257521 356.96306883254425Q1065.024023257521 350.9338362174404 1062.374814987248 346.8686718027113Q1059.725606716975 342.82634539031204 1053.5821840902217 339.4919970501409Q1047.461599465798 336.1576487099698 1036.8419283823764 332.3893783255299L1036.8419283823764 332.3893783255299Q1029.3739016204863 329.740170055257 1023.6872390403315 326.5656877313955Q1017.9777384578468 323.39120540753396 1014.140954066417 319.3717169974647Q1010.2813316726573 315.37506658972535 1008.3172634722825 310.07665004917953Q1006.3531952719078 304.75539550630367 1006.3531952719078 297.94967081198183L1006.3531952719078 297.94967081198183Q1006.3531952719078 288.540413852047 1011.1263377588651 281.84887916937487Q1015.8994802458222 275.13450648437276 1024.3723791102298 271.5717781209023Q1032.8452779746372 267.98621175510186 1043.8303570953376 267.98621175510186L1043.8303570953376 267.98621175510186Q1053.2396140552728 267.98621175510186 1061.2100768684213 269.76757593683715Q1069.2033776839003 271.52610211624244 1075.872074364242 274.4950424191345L1075.872074364242 274.4950424191345L1071.6242059308738 286.2109376143932Q1065.2752412831505 283.5617293441203 1058.1726225585394 281.803203164715Q1051.0700038339287 280.0446769853097 1043.5106250627186 280.0446769853097L1043.5106250627186 280.0446769853097Q1035.9740842938386 280.0446769853097 1030.7898577649426 282.2371252089838Q1025.6056312360465 284.4524114349879 1022.8879089587837 288.4718998450572Q1020.1473486791909 292.4913882551265 1020.1473486791909 298.0181848189717L1020.1473486791909 298.0181848189717Q1020.1473486791909 304.20728345038515 1022.7508809448041 308.29528586744425Q1025.377251212747 312.3832882845033 1031.1095897975615 315.5577706083648Q1036.8419283823764 318.73225293222634 1046.3196993493011 322.1807912840472L1046.3196993493011 322.1807912840472Q1056.6881524070932 325.9718996708171 1063.9049611433543 330.1740920995258Q1071.144607881945 334.3991225305645 1074.9128782663847 340.45119314799837Q1078.681148650825 346.5261017677622 1078.681148650825 355.82116871604734Z " fill="#ffffee" transform="matrix(0.8111757414092144,0,0,0.8111757414092147,0,21.77791191395073)"/></g></svg>